# xmcd
#
# Track frame offsets:
#	150
#	13936
#	27587
#	40031
#	52902
#	64626
#	76519
#	88654
#	100347
#	112391
#	124438
#	137020
#	150008
#	164411
#	177616
#	189968
#	204954
#	218795
#	231552
#	244804
#	257688
#	268728
#	280937
#	293150
#
# Disc length: 4091 seconds
#
# Revision: 1
# Processed by: cddbd v1.5.2PL0 Copyright (c) Steve Scherf et al.
# Submitted via: audiograbber 1.83.01
#
DISCID=5a0ff918
DTITLE=The Greatest Country Music Recordings Of All Time - Record 89 and 90
DYEAR=1900
DGENRE=
TTITLE0=Forth Worth Doughboys - Sunbonnet Sue
TTITLE1=Bob Wills and His Texas Playboys - Osage Stomp
TTITLE2=Bob Wills and His Texas Playboys - I Ain't Got Nobody
TTITLE3=Bob Wills and His Texas Playboys - Get Along Home Cindy
TTITLE4=Bob Wills and His Texas Playboys - Silver Bells
TTITLE5=Bob Wills and His Texas Playboys - Medley Of Spanish Waltzes
TTITLE6=Bob Wills and His Texas Playboys - New San Antonio Rose
TTITLE7=Bob Wills and His Texas Playboys - La Paloma
TTITLE8=Bob Wills and His Texas Playboys - Take Me Back To Tulsa
TTITLE9=Bob Wills and His Texas Playboys - Please Don't Leave Me
TTITLE10=Bob Wills and His Texas Playboys - (Stay All Night) Stay A Little Long
TTITLE10=er
TTITLE11=Bob Wills and His Texas Playboys - Faded Love
TTITLE12=Forth Worth Doughboys - Nancy Jane
TTITLE13=Milton Brown and His Musical Brownies - Brownie's Stomp
TTITLE14=Milton Brown and His Musical Brownies - Oh! You Pretty Woman
TTITLE15=Milton Brown and His Musical Brownies - Joe Turner Blues
TTITLE16=Milton Brown and His Musical Brownies - Do The Hula Lou
TTITLE17=Milton Brown and His Musical Brownies - Just Sitting On Top Of The Wor
TTITLE17=ld
TTITLE18=Milton Brown and His Musical Brownies - El Rancho Grande
TTITLE19=Milton Brown and His Musical Brownies - Down By The O-hi-o
TTITLE20=Milton Brown and His Musical Brownies - Copenhagen
TTITLE21=Milton Brown and His Musical Brownies - Sheik Of Araby
TTITLE22=Milton Brown and His Musical Brownies - East Ridin' Papa
TTITLE23=Milton Brown and His Musical Brownies - Ida (As Sweet As Apple Cider)
EXTD=
EXTT0=
EXTT1=
EXTT2=
EXTT3=
EXTT4=
EXTT5=
EXTT6=
EXTT7=
EXTT8=
EXTT9=
EXTT10=
EXTT11=
EXTT12=
EXTT13=
EXTT14=
EXTT15=
EXTT16=
EXTT17=
EXTT18=
EXTT19=
EXTT20=
EXTT21=
EXTT22=
EXTT23=
PLAYORDER=
